<?xml version="1.0" encoding="utf-8"?>
<!-- Generator: Adobe Illustrator 22.0.1, SVG Export Plug-In . SVG Version: 6.00 Build 0)  -->
<svg version="1.1" id="Layer_2" xmlns="http://www.w3.org/2000/svg" xmlns:xlink="http://www.w3.org/1999/xlink" x="0px" y="0px"
	 viewBox="0 0 320 320" style="enable-background:new 0 0 320 320;" xml:space="preserve">
<style type="text/css">
	.st0{fill:#21416A;}
	.st1{fill:#D0939E;}
</style>
<path class="st0" d="M288.7,159.5c0,71.1-57.3,128.7-128,128.7s-128-57.6-128-128.7S91.4,32.2,162.1,32.2S288.7,88.4,288.7,159.5z"
	/>
<g>
	<path class="st1" d="M69.5,105c-0.4-1.7-0.5-3.4-0.5-5.2c0.1-1.8,0.4-3.5,0.8-5.3c0.9-3.5,2.5-6.7,4.3-9.8
		c3.8-6,8.6-11.1,13.9-15.5c10.6-8.8,22.7-15.1,35.4-19.9c12.8-4.6,26.3-7.7,40.5-8.5c3.5-0.2,7.1-0.3,10.7-0.2
		c3.6,0.1,7.3,0.4,10.9,0.8c3.7,0.4,7.4,1,11.1,1.8c1.9,0.4,3.7,0.9,5.6,1.4c1.9,0.5,3.7,1.1,5.6,1.7c7.4,2.6,14.8,6.1,21.8,10.7
		c7,4.6,13.4,10.5,18.9,17.2c2.7,3.3,5.2,6.9,7.5,10.5c0.6,0.9,1.1,1.8,1.6,2.8c0.5,0.9,1.1,1.9,1.5,2.7c0.9,1.7,1.7,3.4,2.5,5.2
		c3.2,7.1,5.9,14.6,7.7,22.6c3.8,15.9,3.3,33.3-0.6,49.2c-2,8-4.9,15.5-8.4,22.6c-3.5,7.1-7.5,13.7-11.9,19.9
		c-4.5,6.1-9.4,11.8-14.5,17c-5.1,5.2-10.4,10.2-16.1,14.6c-5.6,4.4-11.5,8.5-17.4,12.3c-3,1.9-6,3.7-9.1,5.4
		c-3.1,1.7-6.3,3.3-9.5,4.8c-6.4,3-13,5.8-20,8.1c-3.5,1.2-7,2.2-10.7,3.1c-3.7,0.9-7.5,1.7-11.6,2.3c-4.1,0.6-8.4,1-13.2,1
		c-4.9-0.1-10.3-0.4-17.6-2.9c-1.9-0.7-3.7-1.5-5.8-2.6c-2.1-1.2-4.2-2.5-6.3-4.4c-2.1-1.9-4.1-4.1-5.8-6.7c-1.7-2.6-3-5.4-3.8-8.2
		c-0.2-0.7-0.4-1.4-0.6-2c-0.2-0.7-0.3-1.4-0.4-2l-0.2-1l-0.1-0.5c0-0.1-0.1-0.4,0-0.4l0-0.7l-0.2-2.8l-0.1-2.8l0-2.7
		c-0.1-7.2,0.5-14.1,1.3-20.8c0.4-3.4,0.9-6.6,1.4-9.9c0.6-3.2,1.2-6.5,1.9-9.7c1.4-6.4,2.8-12.7,4.6-18.8
		c1.8-6.2,3.6-12.3,5.7-18.3c4.1-12,8.8-23.7,14-35.1c5.2-11.4,10.9-22.6,17.6-33.3l0.2-0.3c0.5-0.8,1.5-1,2.2-0.5
		c0.6,0.4,0.9,1.2,0.7,1.9c-3.6,11.6-6.8,23.4-9.8,35.2c-2.9,11.8-5.5,23.7-7.7,35.6c-2.2,11.9-4.1,23.9-5.2,36
		c-0.6,6-1,12.1-1.1,18.1c-0.1,3,0,6,0,9c0.1,3,0.2,6,0.5,9l0.2,2.2l0.3,2.2l0.3,2.2l0.1,0.6l0.1,0.4c0,0.3,0.1,0.5,0.2,0.7
		c0.3,0.9,0.9,1.7,1.7,2.4c0.8,0.7,1.8,1.2,3,1.6c2.4,0.7,5.2,0.9,8,0.8c2.8-0.1,5.7-0.5,8.6-1.1c5.8-1.1,11.4-2.9,17-5.1
		c5.6-2.1,11-4.7,16.3-7.5c10.6-5.6,20.6-12.3,29.8-19.9c9.2-7.6,17.6-16.3,24.5-25.9c7-9.6,12.5-20.3,15.5-31.6
		c3.1-11.3,3.5-23.3,1.3-34.8c-1.1-5.8-2.8-11.4-5.1-16.9c-1.1-2.7-2.4-5.4-3.7-8c-1.4-2.5-3-5-4.7-7.3c-6.9-9.3-16.6-16.5-27.5-21
		c-10.9-4.6-22.7-6.8-34.7-7.3c-11.9-0.5-24,0.7-35.7,3.2c-11.7,2.6-23.2,6.5-33.5,12.4c-5.1,3-10,6.5-14,10.8
		c-2,2.1-3.7,4.5-4.9,7.1c-1.3,2.5-2,5.3-2,8.1c0,0.9-0.8,1.6-1.7,1.6c-0.8,0-1.4-0.6-1.6-1.3L69.5,105z"/>
</g>
</svg>
